<svg width="24" height="24" fill="none" viewBox="0 0 30 30" xmlns="http://www.w3.org/2000/svg">
<path fill="#3350e9" d="M16 2.909c7.23 0 13.091 5.861 13.091 13.091s-5.861 13.091-13.091 13.091c-7.23 0-13.091-5.861-13.091-13.091s5.861-13.091 13.091-13.091z"></path>
<path fill="none" stroke="#3350e9" d="M16 1.455c8.033 0 14.545 6.512 14.545 14.545s-6.512 14.545-14.545 14.545c-8.033 0-14.545-6.512-14.545-14.545s6.512-14.545 14.545-14.545z"></path>
<path fill="#fbfbfb" d="M17.993 17.571l1.236-4.48h1.993l-2.313 7.273h-1.789l-1.338-4.407-1.338 4.407h-1.789l-2.313-7.273h1.993l1.236 4.465 1.324-4.465h1.775l1.324 4.48z"></path>
</svg>